<?xml version="1.0" encoding="UTF-8"?>
<svg width="323px" height="69px" viewBox="0 0 323 69" version="1.1" xmlns="http://www.w3.org/2000/svg" xmlns:xlink="http://www.w3.org/1999/xlink">
    <!-- Generator: Sketch 51.2 (57519) - http://www.bohemiancoding.com/sketch -->
    <title>hyperdrive</title>
    <desc>Created with Sketch.</desc>
    <defs></defs>
    <g id="Page-1" stroke="none" stroke-width="1" fill="none" fill-rule="evenodd">
        <g id="Artboard" transform="translate(-170.000000, -55.000000)" fill="#FFFFFF">
            <path d="M184.867667,71.216 C192.931667,67.688 200.923667,72.944 200.995667,81.728 L200.995667,107 L194.515667,107 L194.515667,81.872 C194.443667,77.624 191.275667,75.464 187.459667,77.12 L176.947667,81.728 L176.947667,107 L170.467667,107 L170.467667,58.04 L176.947667,55.16 L176.947667,74.672 L184.867667,71.216 Z M233.189333,72.44 L239.669333,69.56 L239.669333,107 C239.669333,112.04 237.509333,115.496 233.333333,117.368 L220.517333,123.056 L217.925333,117.152 L230.741333,111.464 C232.325333,110.744 233.189333,109.304 233.189333,107 L233.189333,103.256 L225.197333,106.856 C217.133333,110.456 209.141333,104.912 209.141333,96.128 L209.141333,72.44 L215.621333,69.56 L215.621333,95.984 C215.621333,100.232 218.789333,102.608 222.605333,100.952 L233.189333,96.272 L233.189333,72.44 Z M265.671,71 C272.367,71 278.631,77.264 278.631,83.96 L278.631,88.496 C278.631,93.968 275.391,98.648 270.351,100.808 L254.655,107.864 L254.655,119.96 L248.175,122.84 L248.103,83.96 C248.103,77.264 254.367,71 261.063,71 L265.671,71 Z M272.151,88.496 L272.151,83.96 C272.151,80.504 269.127,77.48 265.671,77.48 L261.063,77.48 C257.607,77.48 254.583,80.504 254.583,83.96 L254.583,100.736 L267.759,94.904 C270.783,93.536 272.151,91.448 272.151,88.496 Z M315.000667,95.984 L317.664667,101.96 L309.600667,105.56 C307.440667,106.496 305.352667,107 303.192667,107 L298.584667,107 C291.888667,107 285.624667,100.736 285.624667,94.04 L285.624667,83.96 C285.624667,77.264 291.888667,71 298.584667,71 L307.080667,71 C311.616667,71 316.152667,75.536 316.152667,80.072 L316.152667,81.08 C316.152667,85.616 315.072667,87.992 310.968667,89.864 L293.328667,97.712 C294.480667,99.368 296.424667,100.52 298.584667,100.52 L303.192667,100.52 C304.632667,100.52 305.640667,100.16 306.936667,99.584 L315.000667,95.984 Z M298.584667,77.48 C295.128667,77.48 292.104667,80.504 292.104667,83.96 L292.104667,91.088 L308.304667,83.888 C309.528667,83.384 309.672667,82.376 309.672667,81.08 L309.672667,80.072 C309.672667,78.776 308.376667,77.48 307.080667,77.48 L298.584667,77.48 Z M325.810333,106.928 L325.810333,83.96 C325.810333,77.264 327.754333,73.952 333.874333,71.216 L339.274333,68.84 L341.938333,74.744 L336.538333,77.12 C333.370333,78.56 332.290333,80.504 332.290333,83.96 L332.290333,106.928 L325.810333,106.928 Z M367.508,58.04 L373.988,55.16 L373.988,94.04 C373.988,100.736 367.724,107 361.028,107 L356.42,107 C349.724,107 343.46,100.736 343.46,94.04 L343.46,89.504 C343.46,84.032 346.7,79.352 351.74,77.192 L367.508,70.136 L367.508,58.04 Z M361.028,100.52 C364.484,100.52 367.508,97.496 367.508,94.04 L367.508,77.192 L354.332,83.096 C351.308,84.464 349.94,86.552 349.94,89.504 L349.94,94.04 C349.94,97.496 352.964,100.52 356.42,100.52 L361.028,100.52 Z M382.133667,106.928 L382.133667,83.96 C382.133667,77.264 384.077667,73.952 390.197667,71.216 L395.597667,68.84 L398.261667,74.744 L392.861667,77.12 C389.693667,78.56 388.613667,80.504 388.613667,83.96 L388.613667,106.928 L382.133667,106.928 Z M409.575333,55.448 C412.311333,55.448 413.607333,56.744 413.607333,59.48 C413.607333,62.216 412.311333,63.512 409.575333,63.512 C406.839333,63.512 405.543333,62.216 405.543333,59.48 C405.543333,56.744 406.839333,55.448 409.575333,55.448 Z M406.335333,107 L406.335333,72.368 L412.815333,69.488 L412.815333,107 L406.335333,107 Z M427.585,69.776 L437.881,98.144 L448.177,69.848 L454.297,71.936 L441.553,107 L434.209,107 L421.465,72.008 L427.585,69.776 Z M489.514667,95.984 L492.178667,101.96 L484.114667,105.56 C481.954667,106.496 479.866667,107 477.706667,107 L473.098667,107 C466.402667,107 460.138667,100.736 460.138667,94.04 L460.138667,83.96 C460.138667,77.264 466.402667,71 473.098667,71 L481.594667,71 C486.130667,71 490.666667,75.536 490.666667,80.072 L490.666667,81.08 C490.666667,85.616 489.586667,87.992 485.482667,89.864 L467.842667,97.712 C468.994667,99.368 470.938667,100.52 473.098667,100.52 L477.706667,100.52 C479.146667,100.52 480.154667,100.16 481.450667,99.584 L489.514667,95.984 Z M473.098667,77.48 C469.642667,77.48 466.618667,80.504 466.618667,83.96 L466.618667,91.088 L482.818667,83.888 C484.042667,83.384 484.186667,82.376 484.186667,81.08 L484.186667,80.072 C484.186667,78.776 482.890667,77.48 481.594667,77.48 L473.098667,77.48 Z" id="hyperdrive"></path>
        </g>
    </g>
</svg>