<svg xmlns="http://www.w3.org/2000/svg" width="50" height="50" viewBox="0 0 50 50" style="fill: rgb(38, 44, 70);">
    <path style="text-indent:0;text-align:start;line-height:normal;text-transform:none;block-progression:tb;-inkscape-font-specification:Bitstream Vera Sans" d="M 26.5625 1 C 22.637523 1 19.40625 4.1321879 19.40625 8 C 19.40625 9.735383 20.072183 11.074463 21.125 12.5625 C 21.982595 13.775716 21.937872 14.432628 21.84375 14.625 C 21.74963 14.817372 21.400204 15.063389 20.46875 15 C 18.039926 14.835513 10.25 13.9375 10.25 13.9375 L 10.25 13.96875 C 9.3089784 13.839127 8.3666388 14.241002 7.875 14.90625 C 7.3987747 15.550641 7.2196904 16.306957 7.125 17.09375 C 7.125 17.09375 7.1250304 17.15612 7.125 17.15625 C 7.1223 17.17985 7.096305 17.1951 7.09375 17.21875 L 7.125 17.21875 C 7.114952 17.26177 6.692428 19.207468 6.0625 27.46875 C 6.0528 27.595931 6.041044 27.49477 6.03125 27.625 L 6.0625 27.625 C 6.012552 28.013398 6.05373 28.359817 6.0625 28.40625 C 6.1862662 29.04156 6.5377097 29.675141 7.125 29.96875 C 7.7122903 30.262359 8.3031707 30.183897 8.8125 30.03125 C 9.8311587 29.725956 10.792356 29.045513 11.78125 28.34375 C 12.947406 27.515854 14.047429 27 15.3125 27 C 18.183523 27 20.46875 29.239812 20.46875 32 C 20.46875 34.760188 18.183523 37 15.3125 37 C 13.886889 37 13.078224 36.632204 11.71875 35.5625 C 10.961914 34.967394 10.075101 34.323586 9.125 33.96875 C 8.6499494 33.791332 8.1425361 33.686155 7.5625 33.8125 C 6.9824639 33.938845 6.4274215 34.414957 6.1875 35 C 5.9417088 35.602429 5.9526556 36.023483 6.03125 36.53125 C 6.03604 36.58115 6.0265 36.54458 6.03125 36.59375 C 6.6224945 42.715197 6.9172027 43.312647 7.125 44.21875 C 7.2735029 44.866299 7.5392272 45.525682 8.03125 46.0625 C 8.5232728 46.599318 9.3004973 47 10.15625 47 L 42.1875 47 C 43.300599 47 44.309774 46.633337 45 45.9375 C 45.690226 45.241663 46 44.277879 46 43.25 L 46 17.375 C 46 16.413168 45.644183 15.594046 45.09375 15.03125 C 44.543317 14.468454 43.8634 14.16059 43.21875 13.96875 A 1.0001 1.0001 0 0 0 42.84375 13.9375 C 42.84375 13.9375 35.315756 14.683276 32.59375 15 C 31.802202 15.09176 31.528065 14.91352 31.40625 14.65625 C 31.284435 14.398975 31.235582 13.6678 31.96875 12.5 C 32.523729 11.615518 32.949457 10.971231 33.25 10.28125 C 33.550543 9.5912692 33.6875 8.8617318 33.6875 8 C 33.6875 4.1321879 30.486632 1 26.5625 1 z M 26.5625 3 C 29.432368 3 31.6875 5.2398121 31.6875 8 C 31.6875 8.6652682 31.60946 9.0334808 31.40625 9.5 C 31.203043 9.9665192 30.841271 10.544982 30.28125 11.4375 C 29.344418 12.9297 29.046065 14.343275 29.59375 15.5 C 30.141435 16.656725 31.482048 17.154237 32.8125 17 C 35.397506 16.699217 42.38577 16.007929 42.78125 15.96875 C 43.169942 16.101026 43.515999 16.230897 43.6875 16.40625 C 43.882817 16.605954 44 16.823832 44 17.375 L 44 43.25 C 44 43.878121 43.825524 44.266087 43.5625 44.53125 C 43.299476 44.796413 42.901401 45 42.1875 45 L 10.15625 45 C 9.8800027 45 9.7229772 44.927932 9.53125 44.71875 C 9.3395228 44.509568 9.1469971 44.149701 9.0625 43.78125 C 8.8059664 42.662632 8.628141 42.56178 8.03125 36.34375 A 1.0001 1.0001 0 0 0 8 36.28125 C 7.982338 36.171883 8.082974 35.623225 8.03125 35.75 C 8.067903 35.750672 8.2009608 35.7554 8.4375 35.84375 C 8.9801488 36.046414 9.7795862 36.614356 10.46875 37.15625 C 11.999276 38.360546 13.472111 39 15.3125 39 C 19.237477 39 22.46875 35.867812 22.46875 32 C 22.46875 28.132188 19.237477 25 15.3125 25 C 13.489571 25 11.954844 25.774646 10.625 26.71875 C 9.6748942 27.392987 8.7428413 27.977294 8.25 28.125 C 8.1571184 28.152836 8.1085136 28.152112 8.0625 28.15625 C 8.0588847 28.129203 8.0490655 28.122699 8.03125 28.03125 C 8.0195123 27.96911 8.0321954 27.92139 8.03125 27.90625 A 1.0001 1.0001 0 0 0 8.03125 27.78125 C 8.6815976 19.133222 9.0625 17.5625 9.0625 17.5625 A 1.0001 1.0001 0 0 0 9.09375 17.4375 C 9.163655 16.790444 9.3229231 16.291072 9.46875 16.09375 C 9.6145769 15.896428 9.5847097 15.874444 9.96875 15.9375 A 1.0001 1.0001 0 0 0 10.03125 15.9375 C 10.03125 15.9375 17.722574 16.822487 20.34375 17 C 21.719296 17.09361 23.077622 16.682628 23.65625 15.5 C 24.234878 14.317372 23.814405 12.912034 22.75 11.40625 C 21.770817 10.022287 21.40625 9.272617 21.40625 8 C 21.40625 5.2398121 23.691477 3 26.5625 3 z" color="#000" overflow="visible" enable-background="accumulate" font-family="Bitstream Vera Sans"/>
</svg>