<svg xmlns="http://www.w3.org/2000/svg" viewBox="0 0 50 50" enable-background="new 0 0 50 50" width="50" height="50" style="fill: rgb(38, 44, 70);">
    <path style="text-indent:0;text-align:start;line-height:normal;text-transform:none;block-progression:tb;-inkscape-font-specification:Bitstream Vera Sans" d="M 25 3 C 12.9 3 3 12.9 3 25 C 3 37.1 12.9 47 25 47 C 37.1 47 47 37.1 47 25 C 47 20.7 45.7875 16.80625 43.6875 13.40625 L 42.3125 15 C 44.0125 18 45 21.4 45 25 C 45 36 36 45 25 45 C 14 45 5 36 5 25 C 5 14 14 5 25 5 C 30.2 5 34.9 7.0125 38.5 10.3125 L 39.8125 8.8125 C 35.9125 5.2125 30.7 3 25 3 z M 43.25 7.75 L 23.90625 30.5625 L 15.78125 22.96875 L 14.40625 24.4375 L 23.3125 32.71875 L 24.09375 33.4375 L 24.75 32.65625 L 44.75 9.03125 L 43.25 7.75 z" color="#000" overflow="visible" enable-background="accumulate" font-family="Bitstream Vera Sans"/>
</svg>